<svg xmlns="http://www.w3.org/2000/svg" width="24" height="24" fill="none" viewBox="0 0 24 24" id="flag"><path fill="#854D9C" fill-rule="evenodd" d="M12.1165 4.65437C10.6888 4.08327 9.12577 3.93977 7.6179 4.24134L5.14723 4.73548C4.74106 4.81671 4.34594 4.5533 4.26471 4.14713C4.18348 3.74096 4.44689 3.34584 4.85306 3.26461L7.32373 2.77047C9.11692 2.41183 10.9757 2.58249 12.6736 3.26166L13.0869 3.42697C14.3654 3.93837 15.7725 4.03386 17.1084 3.6999C18.3876 3.3801 19.4149 4.76656 18.7365 5.89723L17.4579 8.02813C17.0815 8.65546 17.0212 8.78487 17.0058 8.90279C16.9973 8.96735 16.9973 9.03273 17.0058 9.0973C17.0212 9.21521 17.0815 9.34462 17.4579 9.97196L19.0186 12.573C19.5885 13.5229 19.0788 14.7535 18.0041 15.0221L17.904 15.0472C15.9815 15.5278 13.9565 15.3903 12.1165 14.6544C10.6888 14.0833 9.12577 13.9398 7.6179 14.2413L5.14723 14.7355C4.74106 14.8167 4.34594 14.5533 4.26471 14.1471C4.18348 13.741 4.44689 13.3458 4.85306 13.2646L7.32373 12.7705C9.11692 12.4118 10.9757 12.5825 12.6736 13.2617C14.2208 13.8805 15.9236 13.9961 17.5402 13.5919L17.6403 13.5669C17.7378 13.5425 17.784 13.4309 17.7323 13.3448L16.1717 10.7437C16.1519 10.7107 16.1322 10.678 16.1126 10.6455C15.8297 10.1756 15.5797 9.76059 15.5184 9.2918C15.4931 9.09812 15.4931 8.90196 15.5184 8.70828C15.5797 8.2395 15.8297 7.82445 16.1126 7.35459C16.1322 7.32212 16.1519 7.2894 16.1717 7.25638L17.4256 5.16662C15.7977 5.56329 14.0862 5.44224 12.5298 4.81968L12.1165 4.65437Z" clip-rule="evenodd"></path><path fill="#CD4ED3" fill-rule="evenodd" d="M5 1.25C5.41421 1.25 5.75 1.58579 5.75 2V22C5.75 22.4142 5.41421 22.75 5 22.75C4.58579 22.75 4.25 22.4142 4.25 22V2C4.25 1.58579 4.58579 1.25 5 1.25Z" clip-rule="evenodd"></path></svg>